<svg xmlns="http://www.w3.org/2000/svg" width="960" height="1200" viewBox="0 0 960 1200" role="img" aria-labelledby="title desc">
  <title id="title">Portrait placeholder for Jonas Richter</title>
  <desc id="desc">Abstract professional portrait placeholder with RAWR brand colors.</desc>
  <defs>
    <linearGradient id="bg" x1="130" y1="80" x2="833" y2="1113" gradientUnits="userSpaceOnUse">
      <stop stop-color="#10b981"/>
      <stop offset="0.48" stop-color="#1e40af"/>
      <stop offset="1" stop-color="#050514"/>
    </linearGradient>
    <radialGradient id="glow" cx="0" cy="0" r="1" gradientUnits="userSpaceOnUse" gradientTransform="translate(642 292) rotate(124) scale(547 463)">
      <stop stop-color="#86efac" stop-opacity="0.72"/>
      <stop offset="1" stop-color="#86efac" stop-opacity="0"/>
    </radialGradient>
    <clipPath id="clip">
      <rect width="960" height="1200" rx="64"/>
    </clipPath>
  </defs>
  <g clip-path="url(#clip)">
    <rect width="960" height="1200" fill="url(#bg)"/>
    <rect width="960" height="1200" fill="url(#glow)"/>
    <path d="M0 783C107 696 228 670 363 705C514 744 618 858 754 819C840 794 908 736 960 680V1200H0V783Z" fill="#09091f" opacity="0.73"/>
    <circle cx="481" cy="367" r="151" fill="#bbf7d0"/>
    <path d="M314 327C360 234 439 195 551 211C625 222 678 279 696 362C631 337 570 303 512 260C452 309 386 332 314 327Z" fill="#0f172a"/>
    <path d="M204 1200L239 921C267 737 361 621 480 621C601 621 696 737 724 921L758 1200H204Z" fill="#101827"/>
    <path d="M373 607C399 641 435 658 482 658C528 658 564 641 591 607V706C558 738 522 754 482 754C441 754 405 738 373 706V607Z" fill="#86efac"/>
    <path d="M308 830C363 779 421 753 481 753C542 753 601 779 656 830" fill="none" stroke="#86efac" stroke-width="15" stroke-linecap="round" opacity="0.62"/>
    <path d="M168 1004H793" stroke="#ffffff" stroke-opacity="0.13" stroke-width="2"/>
    <circle cx="145" cy="199" r="5" fill="#dcfce7" opacity="0.7"/>
    <circle cx="811" cy="184" r="7" fill="#dcfce7" opacity="0.58"/>
    <circle cx="783" cy="1047" r="5" fill="#dcfce7" opacity="0.62"/>
  </g>
</svg>
